####
#
#	OBJ File Generated by LightWave3D
#	LightWave3D OBJ Export v2.3
#
####
o Door_02_06.obj
mtllib Door_02_06.mtl
g default
v -0.65 1 -0.15
v 0.65 1 -0.15
v 0.4025 0.075 -0.15
v 0.4025 0.925 -0.15
v -0.4025 0.925 -0.15
v -0.4025 0.075 -0.15
v 0.4025 2.295 -0.15
v -0.4025 2.295 -0.15
v -0.4025 1.105 -0.15
v 0.4025 1.105 -0.15
v 0.339669 2.23217 -0.15
v -0.339669 2.23217 -0.15
v -0.339669 1.16783 -0.15
v 0.339669 1.16783 -0.15
v 0.339669 0.137831 -0.15
v 0.339669 0.862169 -0.15
v -0.339669 0.862169 -0.15
v -0.339669 0.137831 -0.15
v -0.4025 2.295 -0.166333
v 0.4025 2.295 -0.166333
v -0.4025 1.105 -0.166333
v 0.4025 1.105 -0.166333
v 0.4025 0.075 -0.166333
v 0.4025 0.925 -0.166333
v -0.4025 0.925 -0.166333
v -0.4025 0.075 -0.166333
v -0.388908 2.28141 -0.179128
v 0.388908 2.28141 -0.179128
v 0.388908 1.11859 -0.179128
v -0.388908 1.11859 -0.179128
v 0.388908 0.911408 -0.179128
v 0.388908 0.0885922 -0.179128
v -0.388908 0.0885921 -0.179128
v -0.388908 0.911408 -0.179128
v -0.55 0.925 -0.15
v -0.45 0.925 -0.15
v -0.45 0.925 -0.175
v -0.55 0.925 -0.175
v -0.55 1.225 -0.15
v -0.45 1.225 -0.15
v -0.45 1.225 -0.175
v -0.55 1.225 -0.175
v -0.525 1.1 -0.175
v -0.525 1.15 -0.175
v -0.475 1.15 -0.175
v -0.475 1.1 -0.175
v -0.525 1.1 -0.25
v -0.525 1.15 -0.25
v -0.475 1.15 -0.225
v -0.475 1.1 -0.225
v -0.325 1.1 -0.25
v -0.3 1.1 -0.225
v -0.3 1.15 -0.225
v -0.325 1.15 -0.25
v -0.65 1 5.96046e-009
v 0.65 1 5.96046e-009
v 0.4025 0.075 5.96046e-009
v 0.4025 0.925 -8.9407e-009
v -0.4025 0.925 5.96046e-009
v -0.4025 0.075 5.96046e-009
v 0.4025 2.295 5.96046e-009
v -0.4025 2.295 5.96046e-009
v -0.4025 1.105 5.96046e-009
v 0.4025 1.105 5.96046e-009
v 0.339669 2.23217 5.96046e-009
v -0.339669 2.23217 5.96046e-009
v -0.339669 1.16783 5.96046e-009
v 0.339669 1.16783 5.96046e-009
v 0.339669 0.137831 5.96046e-009
v 0.339669 0.862169 -8.9407e-009
v -0.339669 0.862169 5.96046e-009
v -0.339669 0.137831 5.96046e-009
v -0.4025 2.295 0.0163329
v 0.4025 2.295 0.0163329
v -0.4025 1.105 0.0163329
v 0.4025 1.105 0.0163329
v 0.4025 0.075 0.0163329
v 0.4025 0.925 0.0163329
v -0.4025 0.925 0.0163329
v -0.4025 0.075 0.0163329
v -0.388908 2.28141 0.0291283
v 0.388908 2.28141 0.0291283
v 0.388908 1.11859 0.0291283
v -0.388908 1.11859 0.0291283
v 0.388908 0.911408 0.0291283
v 0.388908 0.0885922 0.0291283
v -0.388908 0.0885921 0.0291283
v -0.388908 0.911408 0.0291283
v -0.55 0.925 5.96046e-009
v -0.45 0.925 5.96046e-009
v -0.45 0.925 0.025
v -0.55 0.925 0.025
v -0.55 1.225 5.96046e-009
v -0.45 1.225 5.96046e-009
v -0.45 1.225 0.025
v -0.55 1.225 0.025
v -0.525 1.1 0.025
v -0.525 1.15 0.025
v -0.475 1.15 0.025
v -0.475 1.1 0.025
v -0.525 1.1 0.1
v -0.525 1.15 0.1
v -0.475 1.15 0.075
v -0.475 1.1 0.075
v -0.325 1.1 0.1
v -0.3 1.1 0.075
v -0.3 1.15 0.075
v -0.325 1.15 0.1
v 0.65 2.4 -0.15
v 0.65 2.4 -0
v -0.65 2.4 -0.15
v -0.65 2.4 -0
v 0.65 0 -0.15
v 0.65 0 -0
v -0.65 0 -0.15
v -0.65 0 -0
vt 0.593831 0.793267
vt 0.694876 0.793267
vt 0.709311 0.793267
vt 0.738181 0.793267
vt 0.810356 0.793267
vt 0.824791 0.793267
vt 0.853661 0.793267
vt 0.925837 0.793267
vt 0.958744 0.375746
vt 0.95902 0.457155
vt 0.962964 0.24294
vt 0.964525 0.309664
vt 0.969142 0.793267
vn 0 -1 -0
vn 0 -1 -0
vn 0 -1 -0
vn 0 -1 -0
vn 0 1 -0
vn 0 1 -0
vn 0 1 -0
vn 0 1 -0
vn 5.31236e-009 1.75308e-008 -1
vn 5.31236e-009 1.75308e-008 -1
vn 5.31236e-009 1.75308e-008 -1
vn 5.31236e-009 1.75308e-008 -1
vn 1.85108e-008 6.10855e-008 -1
vn 1.85108e-008 6.10855e-008 -1
vn 1.85108e-008 6.10855e-008 -1
vn 1.85108e-008 6.10855e-008 -1
vn 0 -0 -1
vn 0 -0 -1
vn 0 -0 -1
vn 0 -0 -1
vn 0 0 -1
vn 0 0 -1
vn 0 0 -1
vn 0 0 -1
vn 0 -0 -1
vn 0 -0 -1
vn 0 -0 -1
vn 0 -0 -1
vn 0 -0 -1
vn 0 -0 -1
vn 0 -0 -1
vn 0 -0 -1
vn 0 0 -1
vn 0 0 -1
vn 0 0 -1
vn 0 0 -1
vn -0 0 -1
vn -0 0 -1
vn -0 0 -1
vn -0 0 -1
vn 0 0 -1
vn 0 0 -1
vn 0 0 -1
vn 0 0 -1
vn -9.02491e-016 2.05721e-008 -1
vn -9.02491e-016 2.05721e-008 -1
vn -9.02491e-016 2.05721e-008 -1
vn -9.02491e-016 2.05721e-008 -1
vn -0 1 -0
vn -0 1 -0
vn -0 1 -0
vn -0 1 -0
vn -1 0 -0
vn -1 0 -0
vn -1 0 -0
vn -1 0 -0
vn -0 -1 0
vn -0 -1 0
vn -0 -1 0
vn -0 -1 0
vn 1 -0 -0
vn 1 -0 -0
vn 1 -0 -0
vn 1 -0 -0
vn 1 -0 -0
vn 1 -0 -0
vn 1 -0 -0
vn 1 -0 -0
vn -7.4043e-008 1 -0
vn -7.4043e-008 1 -0
vn -7.4043e-008 1 -0
vn -7.4043e-008 1 -0
vn -1 0 -0
vn -1 0 -0
vn -1 0 -0
vn -1 0 -0
vn 1.85108e-008 -1 -0
vn 1.85108e-008 -1 -0
vn 1.85108e-008 -1 -0
vn 1.85108e-008 -1 -0
vn 0 -0.509153 -0.860676
vn 0 -0.509153 -0.860676
vn 0 -0.509153 -0.860676
vn 0 -0.509153 -0.860676
vn -0.509152 0 -0.860677
vn -0.509152 0 -0.860677
vn -0.509152 0 -0.860677
vn -0.509152 0 -0.860677
vn 0.509152 -0 -0.860677
vn 0.509152 -0 -0.860677
vn 0.509152 -0 -0.860677
vn 0.509152 -0 -0.860677
vn 0 0.509152 -0.860677
vn 0 0.509152 -0.860677
vn 0 0.509152 -0.860677
vn 0 0.509152 -0.860677
vn -0.509152 1.55868e-008 -0.860677
vn -0.509152 1.55868e-008 -0.860677
vn -0.509152 1.55868e-008 -0.860677
vn -0.509152 1.55868e-008 -0.860677
vn -9.75418e-009 0.509152 -0.860677
vn -9.75418e-009 0.509152 -0.860677
vn -9.75418e-009 0.509152 -0.860677
vn -9.75418e-009 0.509152 -0.860677
vn 5.55053e-008 -0.509152 -0.860677
vn 5.55053e-008 -0.509152 -0.860677
vn 5.55053e-008 -0.509152 -0.860677
vn 5.55053e-008 -0.509152 -0.860677
vn 0.509152 -0 -0.860677
vn 0.509152 -0 -0.860677
vn 0.509152 -0 -0.860677
vn 0.509152 -0 -0.860677
vn 0 0.685442 -0.728127
vn 0 0.685442 -0.728127
vn 0 0.685442 -0.728127
vn 0 0.685442 -0.728127
vn -0.685445 0 -0.728124
vn -0.685445 0 -0.728124
vn -0.685445 0 -0.728124
vn -0.685445 0 -0.728124
vn 0.685445 -0 -0.728124
vn 0.685445 -0 -0.728124
vn 0.685445 -0 -0.728124
vn 0.685445 -0 -0.728124
vn 0 -0.685445 -0.728124
vn 0 -0.685445 -0.728124
vn 0 -0.685445 -0.728124
vn 0 -0.685445 -0.728124
vn 0.685445 1.31863e-008 -0.728124
vn 0.685445 1.31863e-008 -0.728124
vn 0.685445 1.31863e-008 -0.728124
vn 0.685445 1.31863e-008 -0.728124
vn 1.31316e-008 -0.685445 -0.728124
vn 1.31316e-008 -0.685445 -0.728124
vn 1.31316e-008 -0.685445 -0.728124
vn 1.31316e-008 -0.685445 -0.728124
vn -3.8577e-008 0.685445 -0.728124
vn -3.8577e-008 0.685445 -0.728124
vn -3.8577e-008 0.685445 -0.728124
vn -3.8577e-008 0.685445 -0.728124
vn -0.685446 0 -0.728124
vn -0.685446 0 -0.728124
vn -0.685446 0 -0.728124
vn -0.685446 0 -0.728124
vn 0 -1 -0
vn 0 -1 -0
vn 0 -1 -0
vn 0 -1 -0
vn 1 0 -0
vn 1 0 -0
vn 1 0 -0
vn 1 0 -0
vn 0 0 -1
vn 0 0 -1
vn 0 0 -1
vn 0 0 -1
vn -1 0 -0
vn -1 0 -0
vn -1 0 -0
vn -1 0 -0
vn 0 1 -0
vn 0 1 -0
vn 0 1 -0
vn 0 1 -0
vn 0 0 1
vn 0 0 1
vn 0 0 1
vn 0 0 1
vn -1 0 -0
vn -1 0 -0
vn -1 0 -0
vn -1 0 -0
vn 0 1 -0
vn 0 1 -0
vn 0 1 -0
vn 0 1 -0
vn 1 0 -0
vn 1 0 -0
vn 1 0 -0
vn 1 0 -0
vn 0 -1 -0
vn 0 -1 -0
vn 0 -1 -0
vn 0 -1 -0
vn 0.707107 -0 -0.707106
vn 0.707107 -0 -0.707106
vn 0.707107 -0 -0.707106
vn 0.707107 -0 -0.707106
vn 0 -1 -0
vn 0 -1 -0
vn 0 -1 -0
vn 0 -1 -0
vn 0 0 1
vn 0 0 1
vn 0 0 1
vn 0 0 1
vn 0 1 -0
vn 0 1 -0
vn 0 1 -0
vn 0 1 -0
vn 0 -0 -1
vn 0 -0 -1
vn 0 -0 -1
vn 0 -0 -1
vn -6.55191e-008 1.75308e-008 1
vn -6.55191e-008 1.75308e-008 1
vn -6.55191e-008 1.75308e-008 1
vn -6.55191e-008 1.75308e-008 1
vn 0 0 1
vn 0 0 1
vn 0 0 1
vn 0 0 1
vn -2.22765e-008 -5.96046e-009 1
vn -2.22765e-008 -5.96046e-009 1
vn -2.22765e-008 -5.96046e-009 1
vn -2.22765e-008 -5.96046e-009 1
vn -0 -7.94728e-008 1
vn -0 -7.94728e-008 1
vn -0 -7.94728e-008 1
vn -0 -7.94728e-008 1
vn 0 5.67663e-008 1
vn 0 5.67663e-008 1
vn 0 5.67663e-008 1
vn 0 5.67663e-008 1
vn -1.8062e-009 4.25747e-009 1
vn -1.8062e-009 4.25747e-009 1
vn -1.8062e-009 4.25747e-009 1
vn -1.8062e-009 4.25747e-009 1
vn 0 0 1
vn 0 0 1
vn 0 0 1
vn 0 0 1
vn 2.40827e-008 0 1
vn 2.40827e-008 0 1
vn 2.40827e-008 0 1
vn 2.40827e-008 0 1
vn 0 0 1
vn 0 0 1
vn 0 0 1
vn 0 0 1
vn 0 0 1
vn 0 0 1
vn 0 0 1
vn 0 0 1
vn -0 1 -0
vn -0 1 -0
vn -0 1 -0
vn -0 1 -0
vn -1 0 -0
vn -1 0 -0
vn -1 0 -0
vn -1 0 -0
vn -0 -1 0
vn -0 -1 0
vn -0 -1 0
vn -0 -1 0
vn 1 0 0
vn 1 0 0
vn 1 0 0
vn 1 0 0
vn 1 0 0
vn 1 0 0
vn 1 0 0
vn 1 0 0
vn -7.4043e-008 1 -0
vn -7.4043e-008 1 -0
vn -7.4043e-008 1 -0
vn -7.4043e-008 1 -0
vn -1 0 -0
vn -1 0 -0
vn -1 0 -0
vn -1 0 -0
vn 1.85108e-008 -1 -0
vn 1.85108e-008 -1 -0
vn 1.85108e-008 -1 -0
vn 1.85108e-008 -1 -0
vn -0 -0.509153 0.860676
vn -0 -0.509153 0.860676
vn -0 -0.509153 0.860676
vn -0 -0.509153 0.860676
vn -0.509152 0 0.860677
vn -0.509152 0 0.860677
vn -0.509152 0 0.860677
vn -0.509152 0 0.860677
vn 0.509152 0 0.860677
vn 0.509152 0 0.860677
vn 0.509152 0 0.860677
vn 0.509152 0 0.860677
vn 0 0.509152 0.860677
vn 0 0.509152 0.860677
vn 0 0.509152 0.860677
vn 0 0.509152 0.860677
vn -0.509152 1.55868e-008 0.860677
vn -0.509152 1.55868e-008 0.860677
vn -0.509152 1.55868e-008 0.860677
vn -0.509152 1.55868e-008 0.860677
vn -9.75418e-009 0.509152 0.860677
vn -9.75418e-009 0.509152 0.860677
vn -9.75418e-009 0.509152 0.860677
vn -9.75418e-009 0.509152 0.860677
vn 5.55053e-008 -0.509152 0.860677
vn 5.55053e-008 -0.509152 0.860677
vn 5.55053e-008 -0.509152 0.860677
vn 5.55053e-008 -0.509152 0.860677
vn 0.509152 0 0.860677
vn 0.509152 0 0.860677
vn 0.509152 0 0.860677
vn 0.509152 0 0.860677
vn 0 0.685442 0.728127
vn 0 0.685442 0.728127
vn 0 0.685442 0.728127
vn 0 0.685442 0.728127
vn -0.685445 0 0.728124
vn -0.685445 0 0.728124
vn -0.685445 0 0.728124
vn -0.685445 0 0.728124
vn 0.685445 0 0.728124
vn 0.685445 0 0.728124
vn 0.685445 0 0.728124
vn 0.685445 0 0.728124
vn -0 -0.685445 0.728124
vn -0 -0.685445 0.728124
vn -0 -0.685445 0.728124
vn -0 -0.685445 0.728124
vn 0.685445 1.31863e-008 0.728124
vn 0.685445 1.31863e-008 0.728124
vn 0.685445 1.31863e-008 0.728124
vn 0.685445 1.31863e-008 0.728124
vn 1.31316e-008 -0.685445 0.728124
vn 1.31316e-008 -0.685445 0.728124
vn 1.31316e-008 -0.685445 0.728124
vn 1.31316e-008 -0.685445 0.728124
vn -3.85771e-008 0.685445 0.728124
vn -3.85771e-008 0.685445 0.728124
vn -3.85771e-008 0.685445 0.728124
vn -3.85771e-008 0.685445 0.728124
vn -0.685446 0 0.728124
vn -0.685446 0 0.728124
vn -0.685446 0 0.728124
vn -0.685446 0 0.728124
vn 0 -1 -0
vn 0 -1 -0
vn 0 -1 -0
vn 0 -1 -0
vn 1 0 -0
vn 1 0 -0
vn 1 0 -0
vn 1 0 -0
vn 0 0 1
vn 0 0 1
vn 0 0 1
vn 0 0 1
vn -1 -0 0
vn -1 -0 0
vn -1 -0 0
vn -1 -0 0
vn 0 1 -0
vn 0 1 -0
vn 0 1 -0
vn 0 1 -0
vn 0 -0 -1
vn 0 -0 -1
vn 0 -0 -1
vn 0 -0 -1
vn -1 -0 0
vn -1 -0 0
vn -1 -0 0
vn -1 -0 0
vn 0 1 -0
vn 0 1 -0
vn 0 1 -0
vn 0 1 -0
vn 1 0 -0
vn 1 0 -0
vn 1 0 -0
vn 1 0 -0
vn 0 -1 -0
vn 0 -1 -0
vn 0 -1 -0
vn 0 -1 -0
vn 0.707107 0 0.707106
vn 0.707107 0 0.707106
vn 0.707107 0 0.707106
vn 0.707107 0 0.707106
vn 0 -1 0
vn 0 -1 0
vn 0 -1 0
vn 0 -1 0
vn 0 0 -1
vn 0 0 -1
vn 0 0 -1
vn 0 0 -1
vn 0 1 0
vn 0 1 0
vn 0 1 0
vn 0 1 0
vn 0 0 1
vn 0 0 1
vn 0 0 1
vn 0 0 1
vn -1 0 -0
vn -1 0 -0
vn -1 0 -0
vn -1 0 -0
vn -1 0 -0
vn -1 0 -0
vn -1 0 -0
vn -1 0 -0
vn 1 0 -0
vn 1 0 -0
vn 1 0 -0
vn 1 0 -0
vn 1 0 -0
vn 1 0 -0
vn 1 0 -0
vn 1 0 -0
g SU_COLOR
usemtl SU_COLOR
s off
f 115/13/1 113/13/2 114/13/3 116/13/4
f 110/4/5 109/4/6 111/4/7 112/4/8
f 4/5/9 2/7/10 113/13/11 3/8/12
f 1/7/13 2/7/14 4/5/15 5/5/16
f 115/13/17 1/7/18 5/5/19 6/8/20
f 113/13/21 115/13/22 6/8/23 3/8/24
f 111/4/25 109/4/26 7/2/27 8/2/28
f 1/7/29 111/4/30 8/2/31 9/5/32
f 2/7/33 1/7/34 9/5/35 10/5/36
f 7/2/37 109/4/38 2/7/39 10/5/40
f 14/5/41 13/5/42 12/2/43 11/2/44
f 18/8/45 17/5/46 16/5/47 15/8/48
f 8/2/49 7/2/50 20/2/51 19/2/52
f 9/5/53 8/2/54 19/2/55 21/5/56
f 10/5/57 9/5/58 21/5/59 22/5/60
f 20/2/61 7/2/62 10/5/63 22/5/64
f 24/5/65 4/5/66 3/8/67 23/8/68
f 5/5/69 4/5/70 24/5/71 25/5/72
f 6/8/73 5/5/74 25/5/75 26/8/76
f 23/8/77 3/8/78 6/8/79 26/8/80
f 28/2/81 11/2/82 12/2/83 27/2/84
f 29/5/85 14/5/86 11/2/87 28/2/88
f 27/2/89 12/2/90 13/5/91 30/5/92
f 30/5/93 13/5/94 14/5/95 29/5/96
f 32/8/97 15/8/98 16/5/99 31/5/100
f 33/8/101 18/8/102 15/8/103 32/8/104
f 31/5/105 16/5/106 17/5/107 34/5/108
f 34/5/109 17/5/110 18/8/111 33/8/112
f 27/2/113 19/2/114 20/2/115 28/2/116
f 30/5/117 21/5/118 19/2/119 27/2/120
f 28/2/121 20/2/122 22/5/123 29/5/124
f 29/5/125 22/5/126 21/5/127 30/5/128
f 31/5/129 24/5/130 23/8/131 32/8/132
f 32/8/133 23/8/134 26/8/135 33/8/136
f 34/5/137 25/5/138 24/5/139 31/5/140
f 33/8/141 26/8/142 25/5/143 34/5/144
f 38/9/145 37/9/146 36/11/147 35/11/148
f 37/9/149 41/9/150 40/11/151 36/11/152
f 42/9/153 41/9/154 37/9/155 38/9/156
f 39/11/157 42/9/158 38/9/159 35/11/160
f 40/11/161 41/9/162 42/9/163 39/11/164
f 46/9/165 45/9/166 44/9/167 43/9/168
f 44/9/169 48/10/170 47/10/171 43/9/172
f 45/9/173 49/12/174 48/10/175 44/9/176
f 50/12/177 49/12/178 45/9/179 46/9/180
f 47/10/181 50/12/182 46/9/183 43/9/184
f 54/9/185 53/12/186 52/12/187 51/9/188
f 50/12/189 47/10/190 51/9/191 52/12/192
f 53/12/193 49/12/194 50/12/195 52/12/196
f 54/9/197 48/10/198 49/12/199 53/12/200
f 47/10/201 48/10/202 54/9/203 51/9/204
f 57/8/205 114/13/206 56/7/207 58/5/208
f 59/5/209 58/5/210 56/7/211 55/7/212
f 60/8/213 59/5/214 55/7/215 116/13/216
f 57/8/217 60/8/218 116/13/219 114/13/220
f 62/2/221 61/2/222 110/4/223 112/4/224
f 63/5/225 62/2/226 112/4/227 55/7/228
f 64/5/229 63/5/230 55/7/231 56/7/232
f 64/5/233 56/7/234 110/4/235 61/2/236
f 65/2/237 66/2/238 67/5/239 68/5/240
f 69/8/241 70/5/242 71/5/243 72/8/244
f 73/2/245 74/2/246 61/2/247 62/2/248
f 75/5/249 73/2/250 62/2/251 63/5/252
f 76/5/253 75/5/254 63/5/255 64/5/256
f 76/5/257 64/5/258 61/2/259 74/2/260
f 77/8/261 57/8/262 58/5/263 78/5/264
f 79/5/265 78/5/266 58/5/267 59/5/268
f 80/8/269 79/5/270 59/5/271 60/8/272
f 80/8/273 60/8/274 57/8/275 77/8/276
f 81/1/277 66/2/278 65/2/279 82/1/280
f 82/1/281 65/2/282 68/5/283 83/3/284
f 84/3/285 67/5/286 66/2/287 81/1/288
f 83/3/289 68/5/290 67/5/291 84/3/292
f 85/3/293 70/5/294 69/8/295 86/6/296
f 86/6/297 69/8/298 72/8/299 87/6/300
f 88/3/301 71/5/302 70/5/303 85/3/304
f 87/6/305 72/8/306 71/5/307 88/3/308
f 82/1/309 74/2/310 73/2/311 81/1/312
f 81/1/313 73/2/314 75/5/315 84/3/316
f 83/3/317 76/5/318 74/2/319 82/1/320
f 84/3/321 75/5/322 76/5/323 83/3/324
f 86/6/325 77/8/326 78/5/327 85/3/328
f 87/6/329 80/8/330 77/8/331 86/6/332
f 85/3/333 78/5/334 79/5/335 88/3/336
f 88/3/337 79/5/338 80/8/339 87/6/340
f 89/11/341 90/11/342 91/9/343 92/9/344
f 90/11/345 94/11/346 95/9/347 91/9/348
f 92/9/349 91/9/350 95/9/351 96/9/352
f 89/11/353 92/9/354 96/9/355 93/11/356
f 93/11/357 96/9/358 95/9/359 94/11/360
f 97/9/361 98/9/362 99/9/363 100/9/364
f 97/9/365 101/10/366 102/10/367 98/9/368
f 98/9/369 102/10/370 103/12/371 99/9/372
f 100/9/373 99/9/374 103/12/375 104/12/376
f 97/9/377 100/9/378 104/12/379 101/10/380
f 105/9/381 106/12/382 107/12/383 108/9/384
f 106/12/385 105/9/386 101/10/387 104/12/388
f 106/12/389 104/12/390 103/12/391 107/12/392
f 107/12/393 103/12/394 102/10/395 108/9/396
f 105/9/397 108/9/398 102/10/399 101/10/400
f 55/7/401 112/4/402 111/4/403 1/7/404
f 116/13/405 55/7/406 1/7/407 115/13/408
f 110/4/409 56/7/410 2/7/411 109/4/412
f 56/7/413 114/13/414 113/13/415 2/7/416
