####
#
#	OBJ File Generated by LightWave3D
#	LightWave3D OBJ Export v2.3
#
####
o Door_02_03.obj
mtllib Door_02_03.mtl
g default
v -0.65 1 -0.15
v 0.65 1 -0.15
v 0.4025 0.075 -0.15
v 0.4025 0.925 -0.15
v -0.4025 0.925 -0.15
v -0.4025 0.075 -0.15
v 0.4025 2.295 -0.15
v -0.4025 2.295 -0.15
v -0.4025 1.105 -0.15
v 0.4025 1.105 -0.15
v 0.339669 2.23217 -0.15
v -0.339669 2.23217 -0.15
v -0.339669 1.16783 -0.15
v 0.339669 1.16783 -0.15
v 0.339669 0.137831 -0.15
v 0.339669 0.862169 -0.15
v -0.339669 0.862169 -0.15
v -0.339669 0.137831 -0.15
v -0.4025 2.295 -0.166333
v 0.4025 2.295 -0.166333
v -0.4025 1.105 -0.166333
v 0.4025 1.105 -0.166333
v 0.4025 0.075 -0.166333
v 0.4025 0.925 -0.166333
v -0.4025 0.925 -0.166333
v -0.4025 0.075 -0.166333
v -0.388908 2.28141 -0.179128
v 0.388908 2.28141 -0.179128
v 0.388908 1.11859 -0.179128
v -0.388908 1.11859 -0.179128
v 0.388908 0.911408 -0.179128
v 0.388908 0.0885922 -0.179128
v -0.388908 0.0885921 -0.179128
v -0.388908 0.911408 -0.179128
v -0.55 0.925 -0.15
v -0.45 0.925 -0.15
v -0.45 0.925 -0.175
v -0.55 0.925 -0.175
v -0.55 1.225 -0.15
v -0.45 1.225 -0.15
v -0.45 1.225 -0.175
v -0.55 1.225 -0.175
v -0.525 1.1 -0.175
v -0.525 1.15 -0.175
v -0.475 1.15 -0.175
v -0.475 1.1 -0.175
v -0.525 1.1 -0.25
v -0.525 1.15 -0.25
v -0.475 1.15 -0.225
v -0.475 1.1 -0.225
v -0.325 1.1 -0.25
v -0.3 1.1 -0.225
v -0.3 1.15 -0.225
v -0.325 1.15 -0.25
v -0.65 1 5.96046e-009
v 0.65 1 5.96046e-009
v 0.4025 0.075 5.96046e-009
v 0.4025 0.925 -8.9407e-009
v -0.4025 0.925 5.96046e-009
v -0.4025 0.075 5.96046e-009
v 0.4025 2.295 5.96046e-009
v -0.4025 2.295 5.96046e-009
v -0.4025 1.105 5.96046e-009
v 0.4025 1.105 5.96046e-009
v 0.339669 2.23217 5.96046e-009
v -0.339669 2.23217 5.96046e-009
v -0.339669 1.16783 5.96046e-009
v 0.339669 1.16783 5.96046e-009
v 0.339669 0.137831 5.96046e-009
v 0.339669 0.862169 -8.9407e-009
v -0.339669 0.862169 5.96046e-009
v -0.339669 0.137831 5.96046e-009
v -0.4025 2.295 0.0163329
v 0.4025 2.295 0.0163329
v -0.4025 1.105 0.0163329
v 0.4025 1.105 0.0163329
v 0.4025 0.075 0.0163329
v 0.4025 0.925 0.0163329
v -0.4025 0.925 0.0163329
v -0.4025 0.075 0.0163329
v -0.388908 2.28141 0.0291283
v 0.388908 2.28141 0.0291283
v 0.388908 1.11859 0.0291283
v -0.388908 1.11859 0.0291283
v 0.388908 0.911408 0.0291283
v 0.388908 0.0885922 0.0291283
v -0.388908 0.0885921 0.0291283
v -0.388908 0.911408 0.0291283
v -0.55 0.925 5.96046e-009
v -0.45 0.925 5.96046e-009
v -0.45 0.925 0.025
v -0.55 0.925 0.025
v -0.55 1.225 5.96046e-009
v -0.45 1.225 5.96046e-009
v -0.45 1.225 0.025
v -0.55 1.225 0.025
v -0.525 1.1 0.025
v -0.525 1.15 0.025
v -0.475 1.15 0.025
v -0.475 1.1 0.025
v -0.525 1.1 0.1
v -0.525 1.15 0.1
v -0.475 1.15 0.075
v -0.475 1.1 0.075
v -0.325 1.1 0.1
v -0.3 1.1 0.075
v -0.3 1.15 0.075
v -0.325 1.15 0.1
v 0.65 2.4 -0.15
v 0.65 2.4 -0
v -0.65 2.4 -0.15
v -0.65 2.4 -0
v 0.65 0 -0.15
v 0.65 0 -0
v -0.65 0 -0.15
v -0.65 0 -0
vt 0.02 0.63
vt 0.03 0.72
vt 0.03 0.81
vt 0.04 0.92
vt 0.385 0.195
vt 0.385 0.21
vt 0.385 0.235
vt 0.385 0.245
vt 0.385 0.25
vt 0.385 0.275
vt 0.385 0.285
vt 0.385 0.29
vt 0.385 0.325
vn 0 -1 -0
vn 0 -1 -0
vn 0 -1 -0
vn 0 -1 -0
vn 0 1 -0
vn 0 1 -0
vn 0 1 -0
vn 0 1 -0
vn 5.31236e-009 1.75308e-008 -1
vn 5.31236e-009 1.75308e-008 -1
vn 5.31236e-009 1.75308e-008 -1
vn 5.31236e-009 1.75308e-008 -1
vn 1.85108e-008 6.10855e-008 -1
vn 1.85108e-008 6.10855e-008 -1
vn 1.85108e-008 6.10855e-008 -1
vn 1.85108e-008 6.10855e-008 -1
vn 0 -0 -1
vn 0 -0 -1
vn 0 -0 -1
vn 0 -0 -1
vn 0 0 -1
vn 0 0 -1
vn 0 0 -1
vn 0 0 -1
vn 0 -0 -1
vn 0 -0 -1
vn 0 -0 -1
vn 0 -0 -1
vn 0 -0 -1
vn 0 -0 -1
vn 0 -0 -1
vn 0 -0 -1
vn 0 0 -1
vn 0 0 -1
vn 0 0 -1
vn 0 0 -1
vn -0 0 -1
vn -0 0 -1
vn -0 0 -1
vn -0 0 -1
vn 0 0 -1
vn 0 0 -1
vn 0 0 -1
vn 0 0 -1
vn -9.02491e-016 2.05721e-008 -1
vn -9.02491e-016 2.05721e-008 -1
vn -9.02491e-016 2.05721e-008 -1
vn -9.02491e-016 2.05721e-008 -1
vn -0 1 -0
vn -0 1 -0
vn -0 1 -0
vn -0 1 -0
vn -1 0 -0
vn -1 0 -0
vn -1 0 -0
vn -1 0 -0
vn -0 -1 0
vn -0 -1 0
vn -0 -1 0
vn -0 -1 0
vn 1 -0 -0
vn 1 -0 -0
vn 1 -0 -0
vn 1 -0 -0
vn 1 -0 -0
vn 1 -0 -0
vn 1 -0 -0
vn 1 -0 -0
vn -7.4043e-008 1 -0
vn -7.4043e-008 1 -0
vn -7.4043e-008 1 -0
vn -7.4043e-008 1 -0
vn -1 0 -0
vn -1 0 -0
vn -1 0 -0
vn -1 0 -0
vn 1.85108e-008 -1 -0
vn 1.85108e-008 -1 -0
vn 1.85108e-008 -1 -0
vn 1.85108e-008 -1 -0
vn 0 -0.509153 -0.860676
vn 0 -0.509153 -0.860676
vn 0 -0.509153 -0.860676
vn 0 -0.509153 -0.860676
vn -0.509152 0 -0.860677
vn -0.509152 0 -0.860677
vn -0.509152 0 -0.860677
vn -0.509152 0 -0.860677
vn 0.509152 -0 -0.860677
vn 0.509152 -0 -0.860677
vn 0.509152 -0 -0.860677
vn 0.509152 -0 -0.860677
vn 0 0.509152 -0.860677
vn 0 0.509152 -0.860677
vn 0 0.509152 -0.860677
vn 0 0.509152 -0.860677
vn -0.509152 1.55868e-008 -0.860677
vn -0.509152 1.55868e-008 -0.860677
vn -0.509152 1.55868e-008 -0.860677
vn -0.509152 1.55868e-008 -0.860677
vn -9.75418e-009 0.509152 -0.860677
vn -9.75418e-009 0.509152 -0.860677
vn -9.75418e-009 0.509152 -0.860677
vn -9.75418e-009 0.509152 -0.860677
vn 5.55053e-008 -0.509152 -0.860677
vn 5.55053e-008 -0.509152 -0.860677
vn 5.55053e-008 -0.509152 -0.860677
vn 5.55053e-008 -0.509152 -0.860677
vn 0.509152 -0 -0.860677
vn 0.509152 -0 -0.860677
vn 0.509152 -0 -0.860677
vn 0.509152 -0 -0.860677
vn 0 0.685442 -0.728127
vn 0 0.685442 -0.728127
vn 0 0.685442 -0.728127
vn 0 0.685442 -0.728127
vn -0.685445 0 -0.728124
vn -0.685445 0 -0.728124
vn -0.685445 0 -0.728124
vn -0.685445 0 -0.728124
vn 0.685445 -0 -0.728124
vn 0.685445 -0 -0.728124
vn 0.685445 -0 -0.728124
vn 0.685445 -0 -0.728124
vn 0 -0.685445 -0.728124
vn 0 -0.685445 -0.728124
vn 0 -0.685445 -0.728124
vn 0 -0.685445 -0.728124
vn 0.685445 1.31863e-008 -0.728124
vn 0.685445 1.31863e-008 -0.728124
vn 0.685445 1.31863e-008 -0.728124
vn 0.685445 1.31863e-008 -0.728124
vn 1.31316e-008 -0.685445 -0.728124
vn 1.31316e-008 -0.685445 -0.728124
vn 1.31316e-008 -0.685445 -0.728124
vn 1.31316e-008 -0.685445 -0.728124
vn -3.8577e-008 0.685445 -0.728124
vn -3.8577e-008 0.685445 -0.728124
vn -3.8577e-008 0.685445 -0.728124
vn -3.8577e-008 0.685445 -0.728124
vn -0.685446 0 -0.728124
vn -0.685446 0 -0.728124
vn -0.685446 0 -0.728124
vn -0.685446 0 -0.728124
vn 0 -1 -0
vn 0 -1 -0
vn 0 -1 -0
vn 0 -1 -0
vn 1 0 -0
vn 1 0 -0
vn 1 0 -0
vn 1 0 -0
vn 0 0 -1
vn 0 0 -1
vn 0 0 -1
vn 0 0 -1
vn -1 0 -0
vn -1 0 -0
vn -1 0 -0
vn -1 0 -0
vn 0 1 -0
vn 0 1 -0
vn 0 1 -0
vn 0 1 -0
vn 0 0 1
vn 0 0 1
vn 0 0 1
vn 0 0 1
vn -1 0 -0
vn -1 0 -0
vn -1 0 -0
vn -1 0 -0
vn 0 1 -0
vn 0 1 -0
vn 0 1 -0
vn 0 1 -0
vn 1 0 -0
vn 1 0 -0
vn 1 0 -0
vn 1 0 -0
vn 0 -1 -0
vn 0 -1 -0
vn 0 -1 -0
vn 0 -1 -0
vn 0.707107 -0 -0.707106
vn 0.707107 -0 -0.707106
vn 0.707107 -0 -0.707106
vn 0.707107 -0 -0.707106
vn 0 -1 -0
vn 0 -1 -0
vn 0 -1 -0
vn 0 -1 -0
vn 0 0 1
vn 0 0 1
vn 0 0 1
vn 0 0 1
vn 0 1 -0
vn 0 1 -0
vn 0 1 -0
vn 0 1 -0
vn 0 -0 -1
vn 0 -0 -1
vn 0 -0 -1
vn 0 -0 -1
vn -6.55191e-008 1.75308e-008 1
vn -6.55191e-008 1.75308e-008 1
vn -6.55191e-008 1.75308e-008 1
vn -6.55191e-008 1.75308e-008 1
vn 0 0 1
vn 0 0 1
vn 0 0 1
vn 0 0 1
vn -2.22765e-008 -5.96046e-009 1
vn -2.22765e-008 -5.96046e-009 1
vn -2.22765e-008 -5.96046e-009 1
vn -2.22765e-008 -5.96046e-009 1
vn -0 -7.94728e-008 1
vn -0 -7.94728e-008 1
vn -0 -7.94728e-008 1
vn -0 -7.94728e-008 1
vn 0 5.67663e-008 1
vn 0 5.67663e-008 1
vn 0 5.67663e-008 1
vn 0 5.67663e-008 1
vn -1.8062e-009 4.25747e-009 1
vn -1.8062e-009 4.25747e-009 1
vn -1.8062e-009 4.25747e-009 1
vn -1.8062e-009 4.25747e-009 1
vn 0 0 1
vn 0 0 1
vn 0 0 1
vn 0 0 1
vn 2.40827e-008 0 1
vn 2.40827e-008 0 1
vn 2.40827e-008 0 1
vn 2.40827e-008 0 1
vn 0 0 1
vn 0 0 1
vn 0 0 1
vn 0 0 1
vn 0 0 1
vn 0 0 1
vn 0 0 1
vn 0 0 1
vn -0 1 -0
vn -0 1 -0
vn -0 1 -0
vn -0 1 -0
vn -1 0 -0
vn -1 0 -0
vn -1 0 -0
vn -1 0 -0
vn -0 -1 0
vn -0 -1 0
vn -0 -1 0
vn -0 -1 0
vn 1 0 0
vn 1 0 0
vn 1 0 0
vn 1 0 0
vn 1 0 0
vn 1 0 0
vn 1 0 0
vn 1 0 0
vn -7.4043e-008 1 -0
vn -7.4043e-008 1 -0
vn -7.4043e-008 1 -0
vn -7.4043e-008 1 -0
vn -1 0 -0
vn -1 0 -0
vn -1 0 -0
vn -1 0 -0
vn 1.85108e-008 -1 -0
vn 1.85108e-008 -1 -0
vn 1.85108e-008 -1 -0
vn 1.85108e-008 -1 -0
vn -0 -0.509153 0.860676
vn -0 -0.509153 0.860676
vn -0 -0.509153 0.860676
vn -0 -0.509153 0.860676
vn -0.509152 0 0.860677
vn -0.509152 0 0.860677
vn -0.509152 0 0.860677
vn -0.509152 0 0.860677
vn 0.509152 0 0.860677
vn 0.509152 0 0.860677
vn 0.509152 0 0.860677
vn 0.509152 0 0.860677
vn 0 0.509152 0.860677
vn 0 0.509152 0.860677
vn 0 0.509152 0.860677
vn 0 0.509152 0.860677
vn -0.509152 1.55868e-008 0.860677
vn -0.509152 1.55868e-008 0.860677
vn -0.509152 1.55868e-008 0.860677
vn -0.509152 1.55868e-008 0.860677
vn -9.75418e-009 0.509152 0.860677
vn -9.75418e-009 0.509152 0.860677
vn -9.75418e-009 0.509152 0.860677
vn -9.75418e-009 0.509152 0.860677
vn 5.55053e-008 -0.509152 0.860677
vn 5.55053e-008 -0.509152 0.860677
vn 5.55053e-008 -0.509152 0.860677
vn 5.55053e-008 -0.509152 0.860677
vn 0.509152 0 0.860677
vn 0.509152 0 0.860677
vn 0.509152 0 0.860677
vn 0.509152 0 0.860677
vn 0 0.685442 0.728127
vn 0 0.685442 0.728127
vn 0 0.685442 0.728127
vn 0 0.685442 0.728127
vn -0.685445 0 0.728124
vn -0.685445 0 0.728124
vn -0.685445 0 0.728124
vn -0.685445 0 0.728124
vn 0.685445 0 0.728124
vn 0.685445 0 0.728124
vn 0.685445 0 0.728124
vn 0.685445 0 0.728124
vn -0 -0.685445 0.728124
vn -0 -0.685445 0.728124
vn -0 -0.685445 0.728124
vn -0 -0.685445 0.728124
vn 0.685445 1.31863e-008 0.728124
vn 0.685445 1.31863e-008 0.728124
vn 0.685445 1.31863e-008 0.728124
vn 0.685445 1.31863e-008 0.728124
vn 1.31316e-008 -0.685445 0.728124
vn 1.31316e-008 -0.685445 0.728124
vn 1.31316e-008 -0.685445 0.728124
vn 1.31316e-008 -0.685445 0.728124
vn -3.85771e-008 0.685445 0.728124
vn -3.85771e-008 0.685445 0.728124
vn -3.85771e-008 0.685445 0.728124
vn -3.85771e-008 0.685445 0.728124
vn -0.685446 0 0.728124
vn -0.685446 0 0.728124
vn -0.685446 0 0.728124
vn -0.685446 0 0.728124
vn 0 -1 -0
vn 0 -1 -0
vn 0 -1 -0
vn 0 -1 -0
vn 1 0 -0
vn 1 0 -0
vn 1 0 -0
vn 1 0 -0
vn 0 0 1
vn 0 0 1
vn 0 0 1
vn 0 0 1
vn -1 -0 0
vn -1 -0 0
vn -1 -0 0
vn -1 -0 0
vn 0 1 -0
vn 0 1 -0
vn 0 1 -0
vn 0 1 -0
vn 0 -0 -1
vn 0 -0 -1
vn 0 -0 -1
vn 0 -0 -1
vn -1 -0 0
vn -1 -0 0
vn -1 -0 0
vn -1 -0 0
vn 0 1 -0
vn 0 1 -0
vn 0 1 -0
vn 0 1 -0
vn 1 0 -0
vn 1 0 -0
vn 1 0 -0
vn 1 0 -0
vn 0 -1 -0
vn 0 -1 -0
vn 0 -1 -0
vn 0 -1 -0
vn 0.707107 0 0.707106
vn 0.707107 0 0.707106
vn 0.707107 0 0.707106
vn 0.707107 0 0.707106
vn 0 -1 0
vn 0 -1 0
vn 0 -1 0
vn 0 -1 0
vn 0 0 -1
vn 0 0 -1
vn 0 0 -1
vn 0 0 -1
vn 0 1 0
vn 0 1 0
vn 0 1 0
vn 0 1 0
vn 0 0 1
vn 0 0 1
vn 0 0 1
vn 0 0 1
vn -1 0 -0
vn -1 0 -0
vn -1 0 -0
vn -1 0 -0
vn -1 0 -0
vn -1 0 -0
vn -1 0 -0
vn -1 0 -0
vn 1 0 -0
vn 1 0 -0
vn 1 0 -0
vn 1 0 -0
vn 1 0 -0
vn 1 0 -0
vn 1 0 -0
vn 1 0 -0
g SU_COLOR
usemtl SU_COLOR
s off
f 115/5/1 113/5/2 114/5/3 116/5/4
f 110/10/5 109/10/6 111/10/7 112/10/8
f 4/9/9 2/7/10 113/5/11 3/6/12
f 1/7/13 2/7/14 4/9/15 5/9/16
f 115/5/17 1/7/18 5/9/19 6/6/20
f 113/5/21 115/5/22 6/6/23 3/6/24
f 111/10/25 109/10/26 7/12/27 8/12/28
f 1/7/29 111/10/30 8/12/31 9/9/32
f 2/7/33 1/7/34 9/9/35 10/9/36
f 7/12/37 109/10/38 2/7/39 10/9/40
f 14/9/41 13/9/42 12/12/43 11/12/44
f 18/6/45 17/9/46 16/9/47 15/6/48
f 8/12/49 7/12/50 20/12/51 19/12/52
f 9/9/53 8/12/54 19/12/55 21/9/56
f 10/9/57 9/9/58 21/9/59 22/9/60
f 20/12/61 7/12/62 10/9/63 22/9/64
f 24/9/65 4/9/66 3/6/67 23/6/68
f 5/9/69 4/9/70 24/9/71 25/9/72
f 6/6/73 5/9/74 25/9/75 26/6/76
f 23/6/77 3/6/78 6/6/79 26/6/80
f 28/12/81 11/12/82 12/12/83 27/12/84
f 29/9/85 14/9/86 11/12/87 28/12/88
f 27/12/89 12/12/90 13/9/91 30/9/92
f 30/9/93 13/9/94 14/9/95 29/9/96
f 32/6/97 15/6/98 16/9/99 31/9/100
f 33/6/101 18/6/102 15/6/103 32/6/104
f 31/9/105 16/9/106 17/9/107 34/9/108
f 34/9/109 17/9/110 18/6/111 33/6/112
f 27/12/113 19/12/114 20/12/115 28/12/116
f 30/9/117 21/9/118 19/12/119 27/12/120
f 28/12/121 20/12/122 22/9/123 29/9/124
f 29/9/125 22/9/126 21/9/127 30/9/128
f 31/9/129 24/9/130 23/6/131 32/6/132
f 32/6/133 23/6/134 26/6/135 33/6/136
f 34/9/137 25/9/138 24/9/139 31/9/140
f 33/6/141 26/6/142 25/9/143 34/9/144
f 38/3/145 37/3/146 36/1/147 35/1/148
f 37/3/149 41/3/150 40/1/151 36/1/152
f 42/3/153 41/3/154 37/3/155 38/3/156
f 39/1/157 42/3/158 38/3/159 35/1/160
f 40/1/161 41/3/162 42/3/163 39/1/164
f 46/3/165 45/3/166 44/3/167 43/3/168
f 44/3/169 48/4/170 47/4/171 43/3/172
f 45/3/173 49/2/174 48/4/175 44/3/176
f 50/2/177 49/2/178 45/3/179 46/3/180
f 47/4/181 50/2/182 46/3/183 43/3/184
f 54/3/185 53/2/186 52/2/187 51/3/188
f 50/2/189 47/4/190 51/3/191 52/2/192
f 53/2/193 49/2/194 50/2/195 52/2/196
f 54/3/197 48/4/198 49/2/199 53/2/200
f 47/4/201 48/4/202 54/3/203 51/3/204
f 57/6/205 114/5/206 56/7/207 58/9/208
f 59/9/209 58/9/210 56/7/211 55/7/212
f 60/6/213 59/9/214 55/7/215 116/5/216
f 57/6/217 60/6/218 116/5/219 114/5/220
f 62/12/221 61/12/222 110/10/223 112/10/224
f 63/9/225 62/12/226 112/10/227 55/7/228
f 64/9/229 63/9/230 55/7/231 56/7/232
f 64/9/233 56/7/234 110/10/235 61/12/236
f 65/12/237 66/12/238 67/9/239 68/9/240
f 69/6/241 70/9/242 71/9/243 72/6/244
f 73/12/245 74/12/246 61/12/247 62/12/248
f 75/9/249 73/12/250 62/12/251 63/9/252
f 76/9/253 75/9/254 63/9/255 64/9/256
f 76/9/257 64/9/258 61/12/259 74/12/260
f 77/6/261 57/6/262 58/9/263 78/9/264
f 79/9/265 78/9/266 58/9/267 59/9/268
f 80/6/269 79/9/270 59/9/271 60/6/272
f 80/6/273 60/6/274 57/6/275 77/6/276
f 81/13/277 66/12/278 65/12/279 82/13/280
f 82/13/281 65/12/282 68/9/283 83/11/284
f 84/11/285 67/9/286 66/12/287 81/13/288
f 83/11/289 68/9/290 67/9/291 84/11/292
f 85/11/293 70/9/294 69/6/295 86/8/296
f 86/8/297 69/6/298 72/6/299 87/8/300
f 88/11/301 71/9/302 70/9/303 85/11/304
f 87/8/305 72/6/306 71/9/307 88/11/308
f 82/13/309 74/12/310 73/12/311 81/13/312
f 81/13/313 73/12/314 75/9/315 84/11/316
f 83/11/317 76/9/318 74/12/319 82/13/320
f 84/11/321 75/9/322 76/9/323 83/11/324
f 86/8/325 77/6/326 78/9/327 85/11/328
f 87/8/329 80/6/330 77/6/331 86/8/332
f 85/11/333 78/9/334 79/9/335 88/11/336
f 88/11/337 79/9/338 80/6/339 87/8/340
f 89/1/341 90/1/342 91/3/343 92/3/344
f 90/1/345 94/1/346 95/3/347 91/3/348
f 92/3/349 91/3/350 95/3/351 96/3/352
f 89/1/353 92/3/354 96/3/355 93/1/356
f 93/1/357 96/3/358 95/3/359 94/1/360
f 97/3/361 98/3/362 99/3/363 100/3/364
f 97/3/365 101/4/366 102/4/367 98/3/368
f 98/3/369 102/4/370 103/2/371 99/3/372
f 100/3/373 99/3/374 103/2/375 104/2/376
f 97/3/377 100/3/378 104/2/379 101/4/380
f 105/3/381 106/2/382 107/2/383 108/3/384
f 106/2/385 105/3/386 101/4/387 104/2/388
f 106/2/389 104/2/390 103/2/391 107/2/392
f 107/2/393 103/2/394 102/4/395 108/3/396
f 105/3/397 108/3/398 102/4/399 101/4/400
f 55/7/401 112/10/402 111/10/403 1/7/404
f 116/5/405 55/7/406 1/7/407 115/5/408
f 110/10/409 56/7/410 2/7/411 109/10/412
f 56/7/413 114/5/414 113/5/415 2/7/416
