####
#
#	OBJ File Generated by LightWave3D
#	LightWave3D OBJ Export v2.3
#
####
o Door_01_05.obj
mtllib Door_01_05.mtl
g default
v -0.25 2 -0
v 0.25 2 -0
v -0.25 0.5 -0
v 0.25 0.5 -0
v -0.25 0.5 -0.05
v 0.25 0.5 -0.05
v 0.25 0.5 -0.1
v -0.25 0.5 -0.1
v -0.25 2 -0.05
v 0.25 2 -0.05
v 0.25 2 -0.1
v -0.25 2 -0.1
v -0.425 0.4 0.075
v -0.375 0.4 0.075
v -0.375 0.4 0.025
v -0.425 0.4 0.025
v -0.425 2.1 0.075
v -0.375 2.1 0.075
v -0.375 2.1 0.025
v -0.425 2.1 0.025
v -0.425 2 0.025
v -0.375 2 0.025
v -0.375 2 -0
v -0.425 2 -0
v -0.425 2.05 0.025
v -0.375 2.05 0.025
v -0.375 2.05 -0
v -0.425 2.05 -0
v -0.425 0.45 0.025
v -0.375 0.45 0.025
v -0.375 0.45 -0
v -0.425 0.45 -0
v -0.425 0.5 0.025
v -0.375 0.5 0.025
v -0.375 0.5 -0
v -0.425 0.5 -0
v -0.6 1 0.025
v -0.6 1.1 0.025
v -0.5 1.1 0.025
v -0.5 1 0.025
v -0.6 1 -0
v -0.6 1.1 -0
v -0.5 1.1 -0
v -0.5 1 -0
v 0.562073 2.3165 -3.14308e-009
v 0.558004 0.129973 -1.11341e-008
v 0.524303 0.173627 -1.22696e-008
v 0.522726 2.27781 -3.60304e-009
v -0.562073 2.3165 1.06417e-008
v -0.522726 2.27781 1.2199e-008
v -0.558004 0.129973 3.28851e-009
v -0.524303 0.173627 3.62388e-009
v -0.562073 2.3165 -0.15
v -0.558004 0.129973 -0.15
v -0.524303 0.173627 -0.15
v -0.522726 2.27781 -0.15
v 0.562073 2.3165 -0.15
v 0.522726 2.27781 -0.15
v 0.558004 0.129973 -0.15
v 0.524303 0.173627 -0.15
v 0.25 2 -0.15
v 0.65 2.4 -0.15
v 0.65 2.4 -0
v -0.25 2 -0.15
v -0.65 2.4 -0.15
v -0.65 2.4 -0
v 0.25 0.5 -0.15
v 0.65 0 -0.15
v 0.65 0 -0
v -0.25 0.5 -0.15
v -0.65 0 -0.15
v -0.65 0 -0
v -0.25 1.65 -0
v 0.25 1.65 -0
v 0.25 1.65 -0.15
v -0.25 1.65 -0.15
v -0.25 1.7 -0
v 0.25 1.7 -0
v 0.25 1.7 -0.15
v -0.25 1.7 -0.15
v -0.25 0.8 -7.45058e-010
v 0.25 0.8 -7.45058e-010
v 0.25 0.8 -0.15
v -0.25 0.8 -0.15
v -0.25 0.85 -7.45058e-010
v 0.25 0.85 -7.45058e-010
v 0.25 0.85 -0.15
v -0.25 0.85 -0.15
v -0.25 1.225 -7.45058e-010
v 0.25 1.225 -7.45058e-010
v 0.25 1.225 -0.15
v -0.25 1.225 -0.15
v -0.25 1.275 -7.45058e-010
v 0.25 1.275 -7.45058e-010
v 0.25 1.275 -0.15
v -0.25 1.275 -0.15
v -0.375 0.4 -0.225
v -0.425 0.4 -0.225
v -0.425 0.4 -0.175
v -0.375 0.4 -0.175
v -0.375 2.1 -0.225
v -0.425 2.1 -0.225
v -0.425 2.1 -0.175
v -0.375 2.1 -0.175
v -0.375 2 -0.175
v -0.425 2 -0.175
v -0.425 2 -0.15
v -0.375 2 -0.15
v -0.375 2.05 -0.175
v -0.425 2.05 -0.175
v -0.425 2.05 -0.15
v -0.375 2.05 -0.15
v -0.375 0.45 -0.175
v -0.425 0.45 -0.175
v -0.425 0.45 -0.15
v -0.375 0.45 -0.15
v -0.375 0.5 -0.175
v -0.425 0.5 -0.175
v -0.425 0.5 -0.15
v -0.375 0.5 -0.15
v -0.5 1 -0.175
v -0.5 1.1 -0.175
v -0.6 1.1 -0.175
v -0.6 1 -0.175
v -0.5 1 -0.15
v -0.5 1.1 -0.15
v -0.6 1.1 -0.15
v -0.6 1 -0.15
vt 0.02 0.89
vt 0.025 0.64
vt 0.025 0.795
vt 0.0303736 0.91652
vt 0.0385762 0.830572
vt 0.04 0.975
vt 0.761223 0.634558
vt 0.787101 0.701972
vt 0.817119 0.780172
vt 0.842997 0.847585
vn 0 -1 -0
vn 0 -1 -0
vn 0 -1 -0
vn 0 -1 -0
vn 1 0 -0
vn 1 0 -0
vn 1 0 -0
vn 1 0 -0
vn -1 0 -0
vn -1 0 -0
vn -1 0 -0
vn -1 0 -0
vn 0 1 -0
vn 0 1 -0
vn 0 1 -0
vn 0 1 -0
vn -1 0 -0
vn -1 0 -0
vn -1 0 -0
vn -1 0 -0
vn 0 -1 -0
vn 0 -1 -0
vn 0 -1 -0
vn 0 -1 -0
vn 1 0 -0
vn 1 0 -0
vn 1 0 -0
vn 1 0 -0
vn 0 1 0
vn 0 1 0
vn 0 1 0
vn 0 1 0
vn 0 0 1
vn 0 0 1
vn 0 0 1
vn 0 0 1
vn 0 0 -1
vn 0 0 -1
vn 0 0 -1
vn 0 0 -1
vn 0 -1 -0
vn 0 -1 -0
vn 0 -1 -0
vn 0 -1 -0
vn 0 0 1
vn 0 0 1
vn 0 0 1
vn 0 0 1
vn 1 0 -0
vn 1 0 -0
vn 1 0 -0
vn 1 0 -0
vn 0 0 -1
vn 0 0 -1
vn 0 0 -1
vn 0 0 -1
vn -1 0 -0
vn -1 0 -0
vn -1 0 -0
vn -1 0 -0
vn 0 1 -0
vn 0 1 -0
vn 0 1 -0
vn 0 1 -0
vn 0 -1 -0
vn 0 -1 -0
vn 0 -1 -0
vn 0 -1 -0
vn 1 0 -0
vn 1 0 -0
vn 1 0 -0
vn 1 0 -0
vn -1 0 -0
vn -1 0 -0
vn -1 0 -0
vn -1 0 -0
vn 0 1 -0
vn 0 1 -0
vn 0 1 -0
vn 0 1 -0
vn 0 -1 -0
vn 0 -1 -0
vn 0 -1 -0
vn 0 -1 -0
vn 1 0 -0
vn 1 0 -0
vn 1 0 -0
vn 1 0 -0
vn -1 0 -0
vn -1 0 -0
vn -1 0 -0
vn -1 0 -0
vn 0 1 -0
vn 0 1 -0
vn 0 1 -0
vn 0 1 -0
vn 0 0 1
vn 0 0 1
vn 0 0 1
vn 0 0 1
vn -1 0 -0
vn -1 0 -0
vn -1 0 -0
vn -1 0 -0
vn 0 1 -0
vn 0 1 -0
vn 0 1 -0
vn 0 1 -0
vn 1 0 -0
vn 1 0 -0
vn 1 0 -0
vn 1 0 -0
vn 0 -1 -0
vn 0 -1 -0
vn 0 -1 -0
vn 0 -1 -0
vn -3.2333e-008 -3.5945e-009 1
vn -3.2333e-008 -3.5945e-009 1
vn -3.2333e-008 -3.5945e-009 1
vn -3.2333e-008 -3.5945e-009 1
vn 1.22625e-008 1.40366e-007 1
vn 1.22625e-008 1.40366e-007 1
vn 1.22625e-008 1.40366e-007 1
vn 1.22625e-008 1.40366e-007 1
vn 1.51151e-008 -1.86903e-009 1
vn 1.51151e-008 -1.86903e-009 1
vn 1.51151e-008 -1.86903e-009 1
vn 1.51151e-008 -1.86903e-009 1
vn -3.09138e-008 -3.42048e-009 1
vn -3.09138e-008 -3.42048e-009 1
vn -3.09138e-008 -3.42048e-009 1
vn -3.09138e-008 -3.42048e-009 1
vn 1.29234e-008 9.48118e-008 1
vn 1.29234e-008 9.48118e-008 1
vn 1.29234e-008 9.48118e-008 1
vn 1.29234e-008 9.48118e-008 1
vn 1.51568e-008 -1.63514e-009 1
vn 1.51568e-008 -1.63514e-009 1
vn 1.51568e-008 -1.63514e-009 1
vn 1.51568e-008 -1.63514e-009 1
vn -7.63331e-009 -4.12445e-009 1
vn -7.63331e-009 -4.12445e-009 1
vn -7.63331e-009 -4.12445e-009 1
vn -7.63331e-009 -4.12445e-009 1
vn 1.51568e-008 3.77118e-008 1
vn 1.51568e-008 3.77118e-008 1
vn 1.51568e-008 3.77118e-008 1
vn 1.51568e-008 3.77118e-008 1
vn 1.51151e-008 5.56104e-008 1
vn 1.51151e-008 5.56104e-008 1
vn 1.51151e-008 5.56104e-008 1
vn 1.51151e-008 5.56104e-008 1
vn -4.67687e-009 -4.07179e-009 1
vn -4.67687e-009 -4.07179e-009 1
vn -4.67687e-009 -4.07179e-009 1
vn -4.67687e-009 -4.07179e-009 1
vn 1.69771e-007 3.1589e-010 -1
vn 1.69771e-007 3.1589e-010 -1
vn 1.69771e-007 3.1589e-010 -1
vn 1.69771e-007 3.1589e-010 -1
vn -1.32556e-008 1.39591e-008 -1
vn -1.32556e-008 1.39591e-008 -1
vn -1.32556e-008 1.39591e-008 -1
vn -1.32556e-008 1.39591e-008 -1
vn -1.42533e-008 3.96461e-008 -1
vn -1.42533e-008 3.96461e-008 -1
vn -1.42533e-008 3.96461e-008 -1
vn -1.42533e-008 3.96461e-008 -1
vn -0 0 -1
vn -0 0 -1
vn -0 0 -1
vn -0 0 -1
vn -1.33522e-008 1.24099e-007 -1
vn -1.33522e-008 1.24099e-007 -1
vn -1.33522e-008 1.24099e-007 -1
vn -1.33522e-008 1.24099e-007 -1
vn -1.42104e-008 -1.19433e-008 -1
vn -1.42104e-008 -1.19433e-008 -1
vn -1.42104e-008 -1.19433e-008 -1
vn -1.42104e-008 -1.19433e-008 -1
vn 0 0 -1
vn 0 0 -1
vn 0 0 -1
vn 0 0 -1
vn -1.42104e-008 1.09706e-008 -1
vn -1.42104e-008 1.09706e-008 -1
vn -1.42104e-008 1.09706e-008 -1
vn -1.42104e-008 1.09706e-008 -1
vn -1.42533e-008 1.44922e-008 -1
vn -1.42533e-008 1.44922e-008 -1
vn -1.42533e-008 1.44922e-008 -1
vn -1.42533e-008 1.44922e-008 -1
vn -0 -0 -1
vn -0 -0 -1
vn -0 -0 -1
vn -0 -0 -1
vn 0 -1 -0
vn 0 -1 -0
vn 0 -1 -0
vn 0 -1 -0
vn 0 0 1
vn 0 0 1
vn 0 0 1
vn 0 0 1
vn 0 0 -1
vn 0 0 -1
vn 0 0 -1
vn 0 0 -1
vn 0 1 -0
vn 0 1 -0
vn 0 1 -0
vn 0 1 -0
vn 0 -1 -0
vn 0 -1 -0
vn 0 -1 -0
vn 0 -1 -0
vn 0 0 1
vn 0 0 1
vn 0 0 1
vn 0 0 1
vn 0 0 -1
vn 0 0 -1
vn 0 0 -1
vn 0 0 -1
vn 0 1 -0
vn 0 1 -0
vn 0 1 -0
vn 0 1 -0
vn 0 -1 -0
vn 0 -1 -0
vn 0 -1 -0
vn 0 -1 -0
vn 0 0 1
vn 0 0 1
vn 0 0 1
vn 0 0 1
vn 0 0 -1
vn 0 0 -1
vn 0 0 -1
vn 0 0 -1
vn 0 1 -0
vn 0 1 -0
vn 0 1 -0
vn 0 1 -0
vn -5.43722e-008 4.07565e-011 -1
vn -5.43722e-008 4.07565e-011 -1
vn -5.43722e-008 4.07565e-011 -1
vn -5.46379e-008 0 -1
vn -5.46379e-008 0 -1
vn -5.46379e-008 0 -1
vn 0 0 -1
vn 0 0 -1
vn 0 0 -1
vn 0 0 -1
vn 0 0 -1
vn 0 0 -1
vn 3.9865e-008 -4.08885e-009 1
vn 3.9865e-008 -4.08885e-009 1
vn 3.9865e-008 -4.08885e-009 1
vn 1.32112e-008 0 1
vn 1.32112e-008 0 1
vn 1.32112e-008 0 1
vn 4.473e-008 0 1
vn 4.473e-008 0 1
vn 4.473e-008 0 1
vn 1.80762e-008 -4.08885e-009 1
vn 1.80762e-008 -4.08885e-009 1
vn 1.80762e-008 -4.08885e-009 1
vn -0 -1 0
vn -0 -1 0
vn -0 -1 0
vn -0 -1 0
vn 0 -0 -1
vn 0 -0 -1
vn 0 -0 -1
vn 0 -0 -1
vn -1 0 -0
vn -1 0 -0
vn -1 0 -0
vn -1 0 -0
vn 0 0 1
vn 0 0 1
vn 0 0 1
vn 0 0 1
vn 1 -0 -0
vn 1 -0 -0
vn 1 -0 -0
vn 1 -0 -0
vn 0 1 -0
vn 0 1 -0
vn 0 1 -0
vn 0 1 -0
vn -0 -1 0
vn -0 -1 0
vn -0 -1 0
vn -0 -1 0
vn -1 0 -0
vn -1 0 -0
vn -1 0 -0
vn -1 0 -0
vn 1 -0 -0
vn 1 -0 -0
vn 1 -0 -0
vn 1 -0 -0
vn 0 1 -0
vn 0 1 -0
vn 0 1 -0
vn 0 1 -0
vn -0 -1 0
vn -0 -1 0
vn -0 -1 0
vn -0 -1 0
vn -1 0 -0
vn -1 0 -0
vn -1 0 -0
vn -1 0 -0
vn 1 -0 -0
vn 1 -0 -0
vn 1 -0 -0
vn 1 -0 -0
vn 0 1 -0
vn 0 1 -0
vn 0 1 -0
vn 0 1 -0
vn 0 -0 -1
vn 0 -0 -1
vn 0 -0 -1
vn 0 -0 -1
vn 1 -0 -0
vn 1 -0 -0
vn 1 -0 -0
vn 1 -0 -0
vn 0 1 -0
vn 0 1 -0
vn 0 1 -0
vn 0 1 -0
vn -1 0 -0
vn -1 0 -0
vn -1 0 -0
vn -1 0 -0
vn -0 -1 0
vn -0 -1 0
vn -0 -1 0
vn -0 -1 0
g SU_COLOR
usemtl SU_COLOR
s off
f 71/7/1 68/7/2 69/7/3 72/7/4
f 68/7/5 62/9/6 63/9/7 69/7/8
f 66/9/9 65/9/10 71/7/11 72/7/12
f 63/9/13 62/9/14 65/9/15 66/9/16
f 61/9/17 67/9/18 4/9/19 2/9/20
f 64/9/21 61/9/22 2/9/23 1/9/24
f 70/9/25 64/9/26 1/9/27 3/9/28
f 67/9/29 70/9/30 3/9/31 4/9/32
g SU_GLASS
usemtl SU_GLASS
s off
f 6//33 10//34 9//35 5//36
f 12//37 11//38 7//39 8//40
g SU_COLOR
usemtl SU_COLOR
s off
f 16/3/41 15/3/42 14/3/43 13/3/44
f 14/3/45 18/1/46 17/1/47 13/3/48
f 15/3/49 19/1/50 18/1/51 14/3/52
f 20/1/53 19/1/54 15/3/55 16/3/56
f 17/1/57 20/1/58 16/3/59 13/3/60
f 18/1/61 19/1/62 20/1/63 17/1/64
f 24/3/65 23/3/66 22/3/67 21/3/68
f 23/3/69 27/3/70 26/3/71 22/3/72
f 25/3/73 28/3/74 24/3/75 21/3/76
f 26/3/77 27/3/78 28/3/79 25/3/80
f 32/3/81 31/3/82 30/3/83 29/3/84
f 31/3/85 35/3/86 34/3/87 30/3/88
f 33/3/89 36/3/90 32/3/91 29/3/92
f 34/3/93 35/3/94 36/3/95 33/3/96
f 40/3/97 39/6/98 38/3/99 37/3/100
f 38/3/101 42/2/102 41/2/103 37/3/104
f 39/6/105 43/2/106 42/2/107 38/3/108
f 44/2/109 43/2/110 39/6/111 40/3/112
f 41/2/113 44/2/114 40/3/115 37/3/116
f 46/7/117 69/7/118 63/9/119 45/9/120
f 45/9/121 63/9/122 66/9/123 49/9/124
f 50/10/125 1/9/126 2/9/127 48/10/128
f 49/9/129 66/9/130 72/7/131 51/7/132
f 51/7/133 72/7/134 69/7/135 46/7/136
f 47/8/137 4/9/138 3/9/139 52/8/140
f 47/8/141 46/7/142 45/9/143 48/10/144
f 52/8/145 51/7/146 46/7/147 47/8/148
f 48/10/149 45/9/150 49/9/151 50/10/152
f 50/10/153 49/9/154 51/7/155 52/8/156
f 54/7/157 71/7/158 65/9/159 53/9/160
f 53/9/161 65/9/162 62/9/163 57/9/164
f 58/10/165 61/9/166 64/9/167 56/10/168
f 57/9/169 62/9/170 68/7/171 59/7/172
f 59/7/173 68/7/174 71/7/175 54/7/176
f 55/8/177 70/9/178 67/9/179 60/8/180
f 55/8/181 54/7/182 53/9/183 56/10/184
f 60/8/185 59/7/186 54/7/187 55/8/188
f 56/10/189 53/9/190 57/9/191 58/10/192
f 58/10/193 57/9/194 59/7/195 60/8/196
f 76/5/197 75/5/198 74/5/199 73/5/200
f 74/5/201 78/4/202 77/4/203 73/5/204
f 80/4/205 79/4/206 75/5/207 76/5/208
f 78/4/209 79/4/210 80/4/211 77/4/212
f 84/5/213 83/5/214 82/5/215 81/5/216
f 82/5/217 86/4/218 85/4/219 81/5/220
f 88/4/221 87/4/222 83/5/223 84/5/224
f 86/4/225 87/4/226 88/4/227 85/4/228
f 92/5/229 91/5/230 90/5/231 89/5/232
f 90/5/233 94/4/234 93/4/235 89/5/236
f 96/4/237 95/4/238 91/5/239 92/5/240
f 94/4/241 95/4/242 96/4/243 93/4/244
f 56/10/245 70/9/246 55/8/247
f 56/10/248 64/9/249 70/9/250
f 61/9/251 58/10/252 67/9/253
f 67/9/254 58/10/255 60/8/256
f 48/10/257 4/9/258 47/8/259
f 48/10/260 2/9/261 4/9/262
f 1/9/263 50/10/264 3/9/265
f 3/9/266 50/10/267 52/8/268
f 100/3/269 99/3/270 98/3/271 97/3/272
f 98/3/273 102/1/274 101/1/275 97/3/276
f 99/3/277 103/1/278 102/1/279 98/3/280
f 104/1/281 103/1/282 99/3/283 100/3/284
f 101/1/285 104/1/286 100/3/287 97/3/288
f 102/1/289 103/1/290 104/1/291 101/1/292
f 108/3/293 107/3/294 106/3/295 105/3/296
f 107/3/297 111/3/298 110/3/299 106/3/300
f 109/3/301 112/3/302 108/3/303 105/3/304
f 110/3/305 111/3/306 112/3/307 109/3/308
f 116/3/309 115/3/310 114/3/311 113/3/312
f 115/3/313 119/3/314 118/3/315 114/3/316
f 117/3/317 120/3/318 116/3/319 113/3/320
f 118/3/321 119/3/322 120/3/323 117/3/324
f 124/3/325 123/6/326 122/3/327 121/3/328
f 122/3/329 126/2/330 125/2/331 121/3/332
f 123/6/333 127/2/334 126/2/335 122/3/336
f 128/2/337 127/2/338 123/6/339 124/3/340
f 125/2/341 128/2/342 124/3/343 121/3/344
